<svg width="120" height="120" viewBox="0 0 120 120" xmlns="http://www.w3.org/2000/svg" fill="none">
  <!-- Sun -->
  <circle cx="40" cy="40" r="14" fill="#FFD93B"/>
  <!-- Sun Rays -->
  <g stroke="#FFD93B" stroke-width="2">
    <line x1="40" y1="10" x2="40" y2="20"/>
    <line x1="40" y1="60" x2="40" y2="70"/>
    <line x1="10" y1="40" x2="20" y2="40"/>
    <line x1="60" y1="40" x2="70" y2="40"/>
    <line x1="22" y1="22" x2="28" y2="28"/>
    <line x1="58" y1="22" x2="52" y2="28"/>
    <line x1="22" y1="58" x2="28" y2="52"/>
    <line x1="58" y1="58" x2="52" y2="52"/>
  </g>
  
  <!-- Cloud -->
  <ellipse cx="75" cy="55" rx="18" ry="12" fill="#C0C0C0"/>
  <ellipse cx="65" cy="60" rx="15" ry="10" fill="#C0C0C0"/>
  <ellipse cx="85" cy="60" rx="13" ry="9" fill="#C0C0C0"/>

  <!-- Rain Drops -->
  <path d="M68 75 C66 80, 70 80, 68 85" fill="#5DADE2"/>
  <path d="M78 75 C76 80, 80 80, 78 85" fill="#5DADE2"/>
  <path d="M88 75 C86 80, 90 80, 88 85" fill="#5DADE2"/>
</svg>
